# xmcd
#
# Track frame offsets:
#	225
#	22232
#	38440
#	60200
#	76022
#	94525
#	112067
#	129860
#	150560
#	173035
#	195710
#	212145
#	230120
#	247562
#	266192
#	285725
#	311832
#	329255
#
# Disc length: 4469 seconds
#
# Revision: 0
# Processed by: cddbd v1.5.2PL0 Copyright (c) Steve Scherf et al.
# Submitted via: EasyCDDAExtractor 12.0.0.1
#
DISCID=ed117212
DTITLE=Various Artist - Lady In Red vol. 6
DYEAR=1900
DGENRE=
TTITLE0=Bryan Adams - Have You Ever Really Loved A Woman
TTITLE1=Donna Lewis - I Love You Always Forever
TTITLE2=Eros Ramazzotti and Tina Turner - Cose Della Vita (Can't Stop Thinking O
TTITLE2=f You)
TTITLE3=Semply Read - It's Only Love
TTITLE4=Michael Jackson With Siedah Garrett - I Just Can't Stop Loving You
TTITLE5=Bee Gees - How Deep Is Your Love
TTITLE6=Randy Crawford - You Mioght Need Somebody
TTITLE7=Gary Barlow - Forever Love
TTITLE8=Tlc - Red Light Special
TTITLE9=Stevie Wonder - For Your Love
TTITLE10=Boyzone - Love Me For A Reason
TTITLE11=Foreigner - I Want To Know What Love Is
TTITLE12=Color Me Badd - I Wanna Sex You Up
TTITLE13=Lighthouse Family - Loving Every Minute
TTITLE14=Mariah Carey and Luther Vandross - Endless Love
TTITLE15=Maxwell - Ascention (Don't Ever Wonder)
TTITLE16=Texas - Say What You Want
TTITLE17=Elton John - Candle In The Wind
EXTD=
EXTT0=
EXTT1=
EXTT2=
EXTT3=
EXTT4=
EXTT5=
EXTT6=
EXTT7=
EXTT8=
EXTT9=
EXTT10=
EXTT11=
EXTT12=
EXTT13=
EXTT14=
EXTT15=
EXTT16=
EXTT17=
PLAYORDER=
